<?xml version="1.0" encoding="UTF-8"?>
<!DOCTYPE svg PUBLIC "-//W3C//DTD SVG 1.1//EN" "http://www.w3.org/Graphics/SVG/1.1/DTD/svg11.dtd">
<svg xmlns="http://www.w3.org/2000/svg" version="1.1" width="93px" height="93px" style="shape-rendering:geometricPrecision; text-rendering:geometricPrecision; image-rendering:optimizeQuality; fill-rule:evenodd; clip-rule:evenodd" xmlns:xlink="http://www.w3.org/1999/xlink">
<g><path style="opacity:1" fill="#f9ba00" d="M 33.5,30.5 C 31.8561,30.7135 30.3561,30.3802 29,29.5C 27.0122,26.0433 25.8456,22.3766 25.5,18.5C 33.4156,19.0732 36.0823,23.0732 33.5,30.5 Z"/></g>
<g><path style="opacity:1" fill="#f9bb00" d="M 45.5,30.5 C 45.8923,28.8211 46.3923,27.1545 47,25.5C 47.7175,24.5494 48.5509,24.3828 49.5,25C 50.8258,27.8676 49.9925,30.0343 47,31.5C 46.6174,30.944 46.1174,30.6107 45.5,30.5 Z"/></g>
<g><path style="opacity:1" fill="#f9ba00" d="M 10.5,27.5 C 16.2432,27.4702 21.4098,29.1369 26,32.5C 26.4828,33.448 26.6495,34.448 26.5,35.5C 20.2203,37.4505 15.0537,35.7839 11,30.5C 10.5172,29.552 10.3505,28.552 10.5,27.5 Z"/></g>
<g><path style="opacity:1" fill="#f9bb00" d="M 45.5,30.5 C 45.2249,32.7583 44.2249,33.0916 42.5,31.5C 37.4363,32.2283 33.7697,34.895 31.5,39.5C 32.1667,40.1667 32.8333,40.8333 33.5,41.5C 31.6601,48.3207 33.9934,53.154 40.5,56C 43.8648,56.3139 47.0315,56.4806 50,56.5C 52.4491,55.2745 52.9491,53.6079 51.5,51.5C 51.637,49.8927 52.3036,48.5594 53.5,47.5C 56.777,48.2537 60.1103,48.7537 63.5,49C 64.2524,49.6708 64.5858,50.5041 64.5,51.5C 63.8444,52.2778 63.0111,52.9444 62,53.5C 60.3485,53.1402 58.6818,52.8068 57,52.5C 55.1667,53.6667 53.6667,55.1667 52.5,57C 54.8689,57.5359 56.8689,58.7026 58.5,60.5C 59.8627,65.4991 58.196,66.6657 53.5,64C 51.674,62.1646 50.674,60.3313 50.5,58.5C 46.9184,59.3206 46.7517,60.3206 50,61.5C 50.5645,65.681 49.7312,69.5143 47.5,73C 45.2992,73.8249 43.4659,73.3249 42,71.5C 41.1958,67.7959 41.6958,64.2959 43.5,61C 41.1341,60.5604 38.8008,60.0604 36.5,59.5C 24.5432,50.8576 23.5432,41.1909 33.5,30.5C 35.8123,29.6805 38.1457,28.8471 40.5,28C 38.3342,25.0112 38.0008,21.8446 39.5,18.5C 40.8221,18.33 41.9887,18.6634 43,19.5C 45.5023,23.1318 45.0023,26.1318 41.5,28.5C 42.7658,29.3624 44.0992,30.0291 45.5,30.5 Z"/></g>
<g><path style="opacity:1" fill="#f8bb00" d="M 41.5,33.5 C 43.6516,34.0768 43.985,35.2435 42.5,37C 44.6193,35.9798 46.9526,35.6465 49.5,36C 52.1295,39.1994 51.7961,42.1994 48.5,45C 46.5116,45.1805 44.5116,45.0138 42.5,44.5C 42.5,45.5 42.5,46.5 42.5,47.5C 40.289,47.0332 38.289,46.0332 36.5,44.5C 37.0402,43.2519 37.7069,42.0852 38.5,41C 37.572,40.6121 36.9054,39.9454 36.5,39C 37.1476,37.5603 37.4809,36.0603 37.5,34.5C 39.099,34.7678 40.4324,34.4345 41.5,33.5 Z M 46.5,38.5 C 48.9701,39.3603 49.1368,40.6936 47,42.5C 46.51,41.2068 46.3433,39.8734 46.5,38.5 Z"/></g>
<g><path style="opacity:1" fill="#049ee8" d="M 68.5,36.5 C 70.5891,36.8567 72.5891,37.5233 74.5,38.5C 73.1667,39.5 73.1667,40.5 74.5,41.5C 73.9747,42.1924 73.3081,42.6924 72.5,43C 74.4054,43.8261 74.7388,44.9928 73.5,46.5C 72.5224,46.0233 71.6891,45.3567 71,44.5C 70,48.5 69,48.5 68,44.5C 67.0347,46.2603 65.868,46.5937 64.5,45.5C 64.5866,43.2966 64.5866,41.1299 64.5,39C 66.437,38.8784 67.7703,38.045 68.5,36.5 Z"/></g>
<g><path style="opacity:1" fill="#a34a97" d="M 80.5,36.5 C 82.1172,37.038 83.7839,37.3713 85.5,37.5C 85.5191,39.0603 85.8524,40.5603 86.5,42C 86.0946,42.9454 85.428,43.6121 84.5,44C 85.3081,44.3076 85.9747,44.8076 86.5,45.5C 83.5738,46.6097 80.4071,47.2764 77,47.5C 76.342,45.892 76.842,44.7253 78.5,44C 77.572,43.6121 76.9054,42.9454 76.5,42C 77.6155,40.7651 77.6155,39.5984 76.5,38.5C 77.9492,37.8281 79.2825,37.1614 80.5,36.5 Z"/></g>
<g><path style="opacity:1" fill="#a8c701" d="M 53.5,36.5 C 56.5,36.5 59.5,36.5 62.5,36.5C 62.5792,37.9305 62.2458,39.2638 61.5,40.5C 62.1667,41.1667 62.8333,41.8333 63.5,42.5C 61.9223,43.2978 60.2556,43.7978 58.5,44C 59.8213,45.5445 59.4879,46.7112 57.5,47.5C 56.6143,46.675 56.281,45.675 56.5,44.5C 55.1667,44.5 53.8333,44.5 52.5,44.5C 52.3601,42.8762 53.0267,41.7096 54.5,41C 53.6198,39.6439 53.2865,38.1439 53.5,36.5 Z"/></g>
<g><path style="opacity:1" fill="#f9bb00" d="M 5.5,41.5 C 11.1764,41.3339 16.8431,41.5006 22.5,42C 23.624,42.2492 24.624,42.7492 25.5,43.5C 24.3523,45.1487 23.019,46.6487 21.5,48C 16.1667,48.6667 10.8333,48.6667 5.5,48C 4.23204,45.8368 4.23204,43.6702 5.5,41.5 Z"/></g>
<g><path style="opacity:1" fill="#f8bb00" d="M 64.5,51.5 C 65.1614,50.2825 65.8281,48.9492 66.5,47.5C 67.7362,48.2458 69.0695,48.5792 70.5,48.5C 71.17,51.5904 70.0033,53.257 67,53.5C 65.6244,53.3158 64.7911,52.6491 64.5,51.5 Z"/></g>
<g><path style="opacity:1" fill="#f8b900" d="M 86.5,47.5 C 87.4614,49.2646 87.7947,51.2646 87.5,53.5C 84.3837,53.2886 81.5503,52.9553 79,52.5C 78.6924,53.3081 78.1924,53.9747 77.5,54.5C 75.8849,53.846 74.2182,53.346 72.5,53C 71,49.1667 72.1667,48 76,49.5C 79.6027,48.8648 83.1027,48.1982 86.5,47.5 Z"/></g>
<g><path style="opacity:1" fill="#f9bb00" d="M 21.5,52.5 C 23.8056,52.9926 26.139,53.3259 28.5,53.5C 28.415,55.9288 27.415,57.9288 25.5,59.5C 21.9617,61.7685 18.295,63.7685 14.5,65.5C 11.0019,64.8139 9.83528,62.8139 11,59.5C 14.6515,57.2673 18.1515,54.934 21.5,52.5 Z"/></g>
<g><path style="opacity:1" fill="#f9b900" d="M 36.5,59.5 C 38.0485,68.2833 34.3819,72.9499 25.5,73.5C 26.3681,67.7637 28.8681,62.7637 33,58.5C 34.0113,59.3366 35.1779,59.67 36.5,59.5 Z"/></g>
</svg>
